<svg width="32" height="32" viewBox="0 0 32 32" fill="none" xmlns="http://www.w3.org/2000/svg">
  <defs>
    <linearGradient id="grad1" x1="0%" y1="0%" x2="100%" y2="100%">
      <stop offset="0%" style="stop-color:#3b82f6;stop-opacity:1" />
      <stop offset="50%" style="stop-color:#8b5cf6;stop-opacity:1" />
      <stop offset="100%" style="stop-color:#ec4899;stop-opacity:1" />
    </linearGradient>
    <linearGradient id="grad2" x1="0%" y1="0%" x2="100%" y2="100%">
      <stop offset="0%" style="stop-color:#fbbf24;stop-opacity:1" />
      <stop offset="100%" style="stop-color:#f59e0b;stop-opacity:1" />
    </linearGradient>
  </defs>
  
  <!-- Background circle -->
  <circle cx="16" cy="16" r="15" fill="url(#grad1)" stroke="rgba(255,255,255,0.2)" stroke-width="1"/>
  
  <!-- Bitcoin symbol -->
  <path d="M12 8h2v2h2V8h2v2h1c1.1 0 2 .9 2 2v2c0 .6-.4 1.1-1 1.4.6.3 1 .8 1 1.4v2c0 1.1-.9 2-2 2h-1v2h-2v-2h-2v2h-2v-2H9v-2h1v-8H9V8h3zm3 4v2h4v-2h-4zm0 4v2h4v-2h-4z" fill="url(#grad2)"/>
  
  <!-- Shine effect -->
  <circle cx="16" cy="16" r="15" fill="none" stroke="rgba(255,255,255,0.1)" stroke-width="1"/>
  <ellipse cx="12" cy="10" rx="3" ry="2" fill="rgba(255,255,255,0.2)" opacity="0.6"/>
</svg>
